<?xml version="1.0" encoding="UTF-8"?>
<!DOCTYPE svg
PUBLIC "-//W3C//DTD SVG 1.1//EN"
       "http://www.w3.org/Graphics/SVG/1.1/DTD/svg11.dtd">
<svg viewBox="64 33 1007 706" width="943px" height="673px" xmlns="http://www.w3.org/2000/svg" version="1.1">
   <line x1="203" y1="507" x2="213" y2="507" style="stroke:#0bf;stroke-width:1;"/>
   <line x1="330" y1="418" x2="340" y2="418" style="stroke:#0bf;stroke-width:1;"/>
   <line x1="213" y1="507" x2="330" y2="418" style="stroke:#0bf;stroke-width:1;"/>
   <line x1="210.5" y1="507" x2="206.96446609407" y2="510.53553390593" style="stroke:#0bf;stroke-width:2;"/>
   <line x1="210.5" y1="507" x2="206.96446609407" y2="503.46446609407" style="stroke:#0bf;stroke-width:2;"/>
   <line x1="335" y1="418" x2="331.46446609407" y2="421.53553390593" style="stroke:#0bf;stroke-width:2;"/>
   <line x1="335" y1="418" x2="331.46446609407" y2="414.46446609407" style="stroke:#0bf;stroke-width:2;"/>
   <line x1="203" y1="487" x2="213" y2="487" style="stroke:#bbb;stroke-width:1;"/>
   <line x1="225" y1="78" x2="235" y2="78" style="stroke:#bbb;stroke-width:1;"/>
   <line x1="213" y1="487" x2="225" y2="78" style="stroke:#bbb;stroke-width:1;"/>
   <line x1="210.5" y1="487" x2="206.96446609407" y2="490.53553390593" style="stroke:#bbb;stroke-width:2;"/>
   <line x1="210.5" y1="487" x2="206.96446609407" y2="483.46446609407" style="stroke:#bbb;stroke-width:2;"/>
   <line x1="230" y1="78" x2="226.46446609407" y2="81.535533905933" style="stroke:#bbb;stroke-width:2;"/>
   <line x1="230" y1="78" x2="226.46446609407" y2="74.464466094067" style="stroke:#bbb;stroke-width:2;"/>
   <line x1="680" y1="205" x2="670" y2="205" style="stroke:#333;stroke-width:1;"/>
   <line x1="474" y1="418" x2="464" y2="418" style="stroke:#333;stroke-width:1;"/>
   <line x1="670" y1="205" x2="474" y2="418" style="stroke:#333;stroke-width:1;"/>
   <line x1="672.5" y1="205" x2="676.03553390593" y2="208.53553390593" style="stroke:#333;stroke-width:2;"/>
   <line x1="672.5" y1="205" x2="676.03553390593" y2="201.46446609407" style="stroke:#333;stroke-width:2;"/>
   <line x1="469" y1="418" x2="472.53553390593" y2="421.53553390593" style="stroke:#333;stroke-width:2;"/>
   <line x1="469" y1="418" x2="472.53553390593" y2="414.46446609407" style="stroke:#333;stroke-width:2;"/>
   <line x1="840" y1="441" x2="830" y2="441" style="stroke:#b0b;stroke-width:1;"/>
   <line x1="753" y1="527" x2="743" y2="527" style="stroke:#b0b;stroke-width:1;"/>
   <line x1="830" y1="441" x2="753" y2="527" style="stroke:#b0b;stroke-width:1;"/>
   <line x1="832.5" y1="441" x2="836.03553390593" y2="444.53553390593" style="stroke:#b0b;stroke-width:2;"/>
   <line x1="832.5" y1="441" x2="836.03553390593" y2="437.46446609407" style="stroke:#b0b;stroke-width:2;"/>
   <line x1="748" y1="527" x2="751.53553390593" y2="530.53553390593" style="stroke:#b0b;stroke-width:2;"/>
   <line x1="748" y1="527" x2="751.53553390593" y2="523.46446609407" style="stroke:#b0b;stroke-width:2;"/>
   <line x1="840" y1="461" x2="830" y2="461" style="stroke:#c00;stroke-width:1;"/>
   <line x1="402" y1="78" x2="392" y2="78" style="stroke:#c00;stroke-width:1;"/>
   <line x1="830" y1="461" x2="402" y2="78" style="stroke:#c00;stroke-width:1;"/>
   <line x1="832.5" y1="461" x2="836.03553390593" y2="464.53553390593" style="stroke:#c00;stroke-width:2;"/>
   <line x1="832.5" y1="461" x2="836.03553390593" y2="457.46446609407" style="stroke:#c00;stroke-width:2;"/>
   <line x1="397" y1="78" x2="400.53553390593" y2="81.535533905933" style="stroke:#c00;stroke-width:2;"/>
   <line x1="397" y1="78" x2="400.53553390593" y2="74.464466094067" style="stroke:#c00;stroke-width:2;"/>
   <line x1="840" y1="481" x2="830" y2="481" style="stroke:#bbb;stroke-width:1;"/>
   <line x1="820" y1="85" x2="810" y2="85" style="stroke:#bbb;stroke-width:1;"/>
   <line x1="830" y1="481" x2="820" y2="85" style="stroke:#bbb;stroke-width:1;"/>
   <line x1="832.5" y1="481" x2="836.03553390593" y2="484.53553390593" style="stroke:#bbb;stroke-width:2;"/>
   <line x1="832.5" y1="481" x2="836.03553390593" y2="477.46446609407" style="stroke:#bbb;stroke-width:2;"/>
   <line x1="815" y1="85" x2="818.53553390593" y2="88.535533905933" style="stroke:#bbb;stroke-width:2;"/>
   <line x1="815" y1="85" x2="818.53553390593" y2="81.464466094067" style="stroke:#bbb;stroke-width:2;"/>
   <rect width="157" height="20" x="235" y="48" style="fill:#007;stroke:black;"/>
   <text width="157" height="20" x="240" y="62" style="fill:#fff;" font-family="Arial" font-size="16px"> cars</text>
   <rect width="157" height="20" x="235" y="68" style="fill:#aea;stroke:black;"/>
   <text width="157" height="20" x="240" y="82" style="fill:black;" font-family="Arial" font-size="16px">car_id</text>
   <rect width="157" height="20" x="235" y="88" style="fill:none;stroke:black;"/>
   <text width="157" height="20" x="240" y="102" style="fill:black;" font-family="Arial" font-size="16px">car_name</text>
   <rect width="157" height="20" x="235" y="108" style="fill:none;stroke:black;"/>
   <text width="157" height="20" x="240" y="122" style="fill:black;" font-family="Arial" font-size="16px">car_nameplate</text>
   <rect width="157" height="20" x="235" y="128" style="fill:none;stroke:black;"/>
   <text width="157" height="20" x="240" y="142" style="fill:black;" font-family="Arial" font-size="16px">car_img</text>
   <rect width="157" height="20" x="235" y="148" style="fill:none;stroke:black;"/>
   <text width="157" height="20" x="240" y="162" style="fill:black;" font-family="Arial" font-size="16px">ac_price</text>
   <rect width="157" height="20" x="235" y="168" style="fill:none;stroke:black;"/>
   <text width="157" height="20" x="240" y="182" style="fill:black;" font-family="Arial" font-size="16px">non_ac_price</text>
   <rect width="157" height="20" x="235" y="188" style="fill:none;stroke:black;"/>
   <text width="157" height="20" x="240" y="202" style="fill:black;" font-family="Arial" font-size="16px">ac_price_per_day</text>
   <rect width="157" height="20" x="235" y="208" style="fill:none;stroke:black;"/>
   <text width="157" height="20" x="240" y="222" style="fill:black;" font-family="Arial" font-size="16px">non_ac_price_per_day</text>
   <rect width="157" height="20" x="235" y="228" style="fill:none;stroke:black;"/>
   <text width="157" height="20" x="240" y="242" style="fill:black;" font-family="Arial" font-size="16px">car_availability</text>
   <rect width="124" height="20" x="79" y="457" style="fill:#007;stroke:black;"/>
   <text width="124" height="20" x="84" y="471" style="fill:#fff;" font-family="Arial" font-size="16px"> clientcars</text>
   <rect width="124" height="20" x="79" y="477" style="fill:#aea;stroke:black;"/>
   <text width="124" height="20" x="84" y="491" style="fill:black;" font-family="Arial" font-size="16px">car_id</text>
   <rect width="124" height="20" x="79" y="497" style="fill:none;stroke:black;"/>
   <text width="124" height="20" x="84" y="511" style="fill:black;" font-family="Arial" font-size="16px">client_username</text>
   <rect width="124" height="20" x="340" y="388" style="fill:#007;stroke:black;"/>
   <text width="124" height="20" x="345" y="402" style="fill:#fff;" font-family="Arial" font-size="16px"> clients</text>
   <rect width="124" height="20" x="340" y="408" style="fill:none;stroke:black;"/>
   <text width="124" height="20" x="345" y="422" style="fill:black;" font-family="Arial" font-size="16px">client_username</text>
   <rect width="124" height="20" x="340" y="428" style="fill:none;stroke:black;"/>
   <text width="124" height="20" x="345" y="442" style="fill:black;" font-family="Arial" font-size="16px">client_name</text>
   <rect width="124" height="20" x="340" y="448" style="fill:none;stroke:black;"/>
   <text width="124" height="20" x="345" y="462" style="fill:black;" font-family="Arial" font-size="16px">client_phone</text>
   <rect width="124" height="20" x="340" y="468" style="fill:none;stroke:black;"/>
   <text width="124" height="20" x="345" y="482" style="fill:black;" font-family="Arial" font-size="16px">client_email</text>
   <rect width="124" height="20" x="340" y="488" style="fill:none;stroke:black;"/>
   <text width="124" height="20" x="345" y="502" style="fill:black;" font-family="Arial" font-size="16px">client_address</text>
   <rect width="124" height="20" x="340" y="508" style="fill:none;stroke:black;"/>
   <text width="124" height="20" x="345" y="522" style="fill:black;" font-family="Arial" font-size="16px">client_password</text>
   <rect width="152" height="20" x="591" y="497" style="fill:#007;stroke:black;"/>
   <text width="152" height="20" x="596" y="511" style="fill:#fff;" font-family="Arial" font-size="16px"> customers</text>
   <rect width="152" height="20" x="591" y="517" style="fill:none;stroke:black;"/>
   <text width="152" height="20" x="596" y="531" style="fill:black;" font-family="Arial" font-size="16px">customer_username</text>
   <rect width="152" height="20" x="591" y="537" style="fill:none;stroke:black;"/>
   <text width="152" height="20" x="596" y="551" style="fill:black;" font-family="Arial" font-size="16px">customer_name</text>
   <rect width="152" height="20" x="591" y="557" style="fill:none;stroke:black;"/>
   <text width="152" height="20" x="596" y="571" style="fill:black;" font-family="Arial" font-size="16px">customer_phone</text>
   <rect width="152" height="20" x="591" y="577" style="fill:none;stroke:black;"/>
   <text width="152" height="20" x="596" y="591" style="fill:black;" font-family="Arial" font-size="16px">customer_email</text>
   <rect width="152" height="20" x="591" y="597" style="fill:none;stroke:black;"/>
   <text width="152" height="20" x="596" y="611" style="fill:black;" font-family="Arial" font-size="16px">customer_address</text>
   <rect width="152" height="20" x="591" y="617" style="fill:none;stroke:black;"/>
   <text width="152" height="20" x="596" y="631" style="fill:black;" font-family="Arial" font-size="16px">customer_password</text>
   <rect width="130" height="20" x="680" y="55" style="fill:#007;stroke:black;"/>
   <text width="130" height="20" x="685" y="69" style="fill:#fff;" font-family="Arial" font-size="16px"> driver</text>
   <rect width="130" height="20" x="680" y="75" style="fill:#aea;stroke:black;"/>
   <text width="130" height="20" x="685" y="89" style="fill:black;" font-family="Arial" font-size="16px">driver_id</text>
   <rect width="130" height="20" x="680" y="95" style="fill:none;stroke:black;"/>
   <text width="130" height="20" x="685" y="109" style="fill:black;" font-family="Arial" font-size="16px">driver_name</text>
   <rect width="130" height="20" x="680" y="115" style="fill:none;stroke:black;"/>
   <text width="130" height="20" x="685" y="129" style="fill:black;" font-family="Arial" font-size="16px">dl_number</text>
   <rect width="130" height="20" x="680" y="135" style="fill:none;stroke:black;"/>
   <text width="130" height="20" x="685" y="149" style="fill:black;" font-family="Arial" font-size="16px">driver_phone</text>
   <rect width="130" height="20" x="680" y="155" style="fill:none;stroke:black;"/>
   <text width="130" height="20" x="685" y="169" style="fill:black;" font-family="Arial" font-size="16px">driver_address</text>
   <rect width="130" height="20" x="680" y="175" style="fill:none;stroke:black;"/>
   <text width="130" height="20" x="685" y="189" style="fill:black;" font-family="Arial" font-size="16px">driver_gender</text>
   <rect width="130" height="20" x="680" y="195" style="fill:none;stroke:black;"/>
   <text width="130" height="20" x="685" y="209" style="fill:black;" font-family="Arial" font-size="16px">client_username</text>
   <rect width="130" height="20" x="680" y="215" style="fill:none;stroke:black;"/>
   <text width="130" height="20" x="685" y="229" style="fill:black;" font-family="Arial" font-size="16px">driver_availability</text>
   <rect width="75" height="20" x="439" y="247" style="fill:#007;stroke:black;"/>
   <text width="75" height="20" x="444" y="261" style="fill:#fff;" font-family="Arial" font-size="16px"> feedback</text>
   <rect width="75" height="20" x="439" y="267" style="fill:none;stroke:black;"/>
   <text width="75" height="20" x="444" y="281" style="fill:black;" font-family="Arial" font-size="16px">name</text>
   <rect width="75" height="20" x="439" y="287" style="fill:none;stroke:black;"/>
   <text width="75" height="20" x="444" y="301" style="fill:black;" font-family="Arial" font-size="16px">e_mail</text>
   <rect width="75" height="20" x="439" y="307" style="fill:none;stroke:black;"/>
   <text width="75" height="20" x="444" y="321" style="fill:black;" font-family="Arial" font-size="16px">message</text>
   <rect width="152" height="20" x="840" y="391" style="fill:#007;stroke:black;"/>
   <text width="152" height="20" x="845" y="405" style="fill:#fff;" font-family="Arial" font-size="16px"> rentedcars</text>
   <rect width="152" height="20" x="840" y="411" style="fill:#aea;stroke:black;"/>
   <text width="152" height="20" x="845" y="425" style="fill:black;" font-family="Arial" font-size="16px">id</text>
   <rect width="152" height="20" x="840" y="431" style="fill:none;stroke:black;"/>
   <text width="152" height="20" x="845" y="445" style="fill:black;" font-family="Arial" font-size="16px">customer_username</text>
   <rect width="152" height="20" x="840" y="451" style="fill:none;stroke:black;"/>
   <text width="152" height="20" x="845" y="465" style="fill:black;" font-family="Arial" font-size="16px">car_id</text>
   <rect width="152" height="20" x="840" y="471" style="fill:none;stroke:black;"/>
   <text width="152" height="20" x="845" y="485" style="fill:black;" font-family="Arial" font-size="16px">driver_id</text>
   <rect width="152" height="20" x="840" y="491" style="fill:none;stroke:black;"/>
   <text width="152" height="20" x="845" y="505" style="fill:black;" font-family="Arial" font-size="16px">booking_date</text>
   <rect width="152" height="20" x="840" y="511" style="fill:none;stroke:black;"/>
   <text width="152" height="20" x="845" y="525" style="fill:black;" font-family="Arial" font-size="16px">rent_start_date</text>
   <rect width="152" height="20" x="840" y="531" style="fill:none;stroke:black;"/>
   <text width="152" height="20" x="845" y="545" style="fill:black;" font-family="Arial" font-size="16px">rent_end_date</text>
   <rect width="152" height="20" x="840" y="551" style="fill:none;stroke:black;"/>
   <text width="152" height="20" x="845" y="565" style="fill:black;" font-family="Arial" font-size="16px">car_return_date</text>
   <rect width="152" height="20" x="840" y="571" style="fill:none;stroke:black;"/>
   <text width="152" height="20" x="845" y="585" style="fill:black;" font-family="Arial" font-size="16px">fare</text>
   <rect width="152" height="20" x="840" y="591" style="fill:none;stroke:black;"/>
   <text width="152" height="20" x="845" y="605" style="fill:black;" font-family="Arial" font-size="16px">charge_type</text>
   <rect width="152" height="20" x="840" y="611" style="fill:none;stroke:black;"/>
   <text width="152" height="20" x="845" y="625" style="fill:black;" font-family="Arial" font-size="16px">distance</text>
   <rect width="152" height="20" x="840" y="631" style="fill:none;stroke:black;"/>
   <text width="152" height="20" x="845" y="645" style="fill:black;" font-family="Arial" font-size="16px">no_of_days</text>
   <rect width="152" height="20" x="840" y="651" style="fill:none;stroke:black;"/>
   <text width="152" height="20" x="845" y="665" style="fill:black;" font-family="Arial" font-size="16px">total_amount</text>
   <rect width="152" height="20" x="840" y="671" style="fill:none;stroke:black;"/>
   <text width="152" height="20" x="845" y="685" style="fill:black;" font-family="Arial" font-size="16px">return_status</text>
</svg>
